<?xml version="1.0" standalone="no"?>
<svg xmlns="http://www.w3.org/2000/svg" width="3479" height="2319" viewBox="0 0 3479 2319" preserveAspectRatio="xMidYMid meet">
        <title>PKG-Defender Transparent Logo</title>
        <metadata> © 2026 MI-7 | Division 7 Holding. All rights reserved.</metadata>
        <g transform="translate(0.000000,2319.000000) scale(0.100000,-0.100000)" fill="#ffffff" stroke="none">
                <path d="M21299 22227 c-153 -43 -396 -249 -555 -472 -69 -97 -223 -363 -292
                -506 -54 -113 -129 -339 -162 -486 -11 -51 -20 -95 -20 -98 0 -3 -6 -5 -14 -5
                -18 0 -28 31 -60 180 -34 155 -62 330 -77 475 -13 132 -7 483 10 550 16 63 2
                70 -97 51 -278 -53 -452 -175 -645 -456 -82 -119 -161 -269 -226 -428 -91
                -223 -132 -374 -200 -742 -31 -165 -36 -196 -90 -605 -87 -646 -176 -970 -407
                -1481 -68 -149 -203 -406 -254 -479 -35 -51 -54 -58 -217 -80 -398 -52 -964
                -172 -1513 -320 -52 -15 -135 -37 -185 -50 -247 -64 -478 -137 -870 -275 -308
                -108 -636 -270 -880 -433 -58 -40 -494 -363 -705 -524 -58 -44 -159 -117 -226
                -161 -201 -133 -240 -205 -279 -512 -9 -69 -21 -145 -26 -169 -25 -115 -111
                -230 -219 -296 -61 -37 -266 -120 -445 -180 -147 -49 -499 -135 -780 -189
                -126 -25 -250 -50 -275 -55 -25 -6 -151 -33 -280 -61 -400 -85 -886 -200 -911
                -215 -4 -3 -52 -18 -106 -34 -54 -16 -152 -45 -218 -64 -171 -50 -377 -91
                -650 -127 -180 -24 -421 -72 -613 -120 -438 -112 -831 -285 -995 -439 -111
                -105 -169 -248 -168 -419 0 -82 21 -218 45 -292 95 -296 207 -545 304 -675 64
                -87 171 -192 270 -268 45 -34 69 -61 81 -90 10 -23 43 -103 75 -177 82 -197
                224 -434 359 -598 67 -81 178 -180 247 -219 67 -39 88 -61 109 -117 81 -216
                218 -396 416 -545 51 -39 100 -74 108 -77 8 -3 32 3 54 14 39 20 160 49 223
                54 19 2 35 8 34 13 0 6 -39 37 -86 70 -244 171 -351 293 -481 547 -83 161 -89
                169 -155 219 -31 24 -81 61 -111 83 -80 60 -178 160 -252 256 -107 139 -161
                239 -243 451 -69 177 -94 219 -176 290 -154 133 -183 160 -219 206 -48 61 -89
                129 -131 218 -18 39 -57 122 -87 185 -89 186 -123 315 -123 461 0 156 56 224
                282 342 145 76 430 184 638 242 74 20 155 43 180 50 25 8 106 26 180 41 193
                39 341 38 500 -4 247 -64 533 -191 632 -280 37 -34 57 -25 79 33 l19 49 -27
                38 c-73 106 -229 201 -423 258 -81 24 -100 35 -100 56 0 10 14 14 46 14 26 0
                94 7 153 16 114 17 372 15 541 -5 294 -35 446 -44 693 -39 239 5 325 16 301
                37 -9 8 -270 53 -494 86 -58 9 -176 22 -262 29 -164 15 -178 18 -178 41 0 20
                6 22 113 39 54 9 163 30 245 47 81 16 230 45 332 64 102 18 259 49 350 68 91
                20 212 45 270 57 500 102 1007 256 1208 366 161 89 246 172 316 311 47 94 71
                185 96 368 23 166 46 230 102 286 34 35 155 123 328 240 52 35 147 102 210
                148 590 435 844 584 1220 718 429 153 655 223 1225 378 94 25 211 57 260 70
                207 57 690 160 955 205 63 11 241 36 395 56 231 30 323 37 528 41 l247 6 0
                -24 c0 -17 -23 -47 -76 -99 -99 -98 -214 -227 -214 -241 0 -31 156 38 303 135
                231 152 422 336 600 578 31 42 57 80 57 83 0 4 11 21 24 38 27 36 86 140 174
                307 202 385 357 932 427 1515 8 72 22 186 31 255 29 239 75 444 172 765 56
                184 136 379 222 538 52 98 214 328 285 405 89 97 205 193 229 190 42 -6 64
                -124 100 -533 17 -183 54 -442 87 -595 32 -153 135 -553 159 -620 5 -14 37
                -115 70 -225 34 -110 75 -234 90 -275 16 -41 43 -115 60 -165 38 -106 115
                -303 140 -360 10 -22 32 -71 49 -110 16 -38 69 -151 117 -250 47 -99 103 -216
                124 -260 20 -44 56 -111 79 -149 58 -94 167 -309 220 -431 61 -141 147 -390
                181 -520 72 -280 79 -595 20 -945 -17 -102 -35 -230 -41 -285 -16 -140 -6
                -406 19 -530 53 -265 54 -501 3 -698 -33 -128 -55 -187 -139 -377 -80 -182
                -171 -418 -245 -635 -36 -104 -68 -198 -72 -207 -14 -36 23 -18 61 29 96 117
                227 299 303 423 108 172 271 498 310 619 60 183 65 224 64 486 -1 245 -2 261
                -52 495 -25 117 -28 200 -6 200 8 0 55 -22 105 -50 50 -27 92 -50 95 -50 3 0
                26 -13 52 -29 27 -15 118 -69 203 -118 381 -222 458 -270 675 -415 317 -212
                481 -324 540 -368 28 -20 136 -99 240 -175 221 -161 368 -272 480 -364 117
                -95 160 -130 258 -207 49 -38 100 -79 115 -92 116 -101 276 -234 459 -382 37
                -30 113 -95 168 -144 55 -49 134 -118 175 -155 154 -137 235 -216 238 -233 2
                -10 -5 -30 -16 -45 -10 -16 -56 -95 -102 -178 -163 -295 -629 -1020 -895
                -1395 -41 -58 -118 -166 -169 -240 -52 -74 -152 -211 -221 -305 -70 -93 -141
                -190 -158 -214 -18 -24 -68 -89 -112 -145 -45 -56 -92 -116 -105 -135 l-24
                -34 27 -23 c15 -13 44 -28 64 -33 44 -12 76 1 180 75 186 133 260 210 465 489
                58 79 99 137 271 385 22 30 57 80 78 110 55 76 206 304 330 498 260 407 361
                569 391 622 14 25 62 107 107 182 44 75 81 139 81 142 0 3 21 45 48 93 87 161
                162 352 162 412 0 28 -41 100 -61 106 -20 7 -24 4 -118 -72 -29 -24 -57 -43
                -62 -43 -5 0 -89 75 -187 168 -235 221 -479 435 -697 609 -66 53 -174 142
                -240 198 -116 97 -310 250 -446 351 -36 27 -115 87 -175 134 -200 157 -839
                601 -999 695 -55 32 -154 93 -220 135 -234 150 -588 353 -833 480 -92 47 -124
                69 -128 86 -3 13 -4 27 -1 31 3 5 16 85 28 178 33 246 33 625 0 805 -58 322
                -202 700 -423 1105 -125 228 -286 561 -373 770 -48 116 -93 224 -100 240 -7
                17 -29 75 -49 130 -21 55 -47 127 -60 160 -20 53 -55 160 -117 360 -10 33 -38
                139 -63 235 -25 96 -63 247 -86 335 -90 348 -148 672 -165 910 -10 139 -34
                315 -50 368 -30 99 -103 222 -148 251 -33 22 -87 27 -138 13z m-1416 -809 c17
                -418 86 -748 228 -1089 28 -68 53 -135 56 -149 2 -14 -8 -101 -22 -195 -14
                -93 -35 -226 -45 -295 -37 -243 -94 -499 -151 -685 -54 -173 -79 -241 -129
                -355 -23 -52 -45 -106 -50 -120 -54 -165 -298 -571 -452 -752 l-49 -56 -372
                -4 c-204 -2 -374 -2 -376 -1 -2 1 17 37 42 80 61 105 187 366 232 483 41 102
                107 303 155 467 74 250 133 570 185 1003 52 428 152 874 253 1130 52 132 144
                314 211 414 82 124 236 286 272 286 3 0 9 -73 12 -162z" />
                <path d="M21212 21033 c-43 -175 -47 -223 -46 -533 1 -495 39 -755 223 -1535
                125 -532 173 -992 137 -1304 -32 -268 -96 -460 -256 -756 -97 -181 -130 -278
                -130 -378 1 -80 34 -193 61 -210 19 -12 95 49 282 230 65 62 125 113 132 113
                8 0 16 -14 19 -32 2 -18 12 -89 21 -158 57 -436 150 -678 327 -849 85 -82 103
                -89 95 -33 -56 351 -45 551 54 922 109 408 112 430 113 740 0 253 -1 271 -27
                395 -73 343 -182 692 -392 1260 -99 266 -233 661 -284 835 -120 414 -268 1051
                -286 1235 -12 120 -24 135 -43 58z" />
                <path d="M20226 17703 c-10 -35 -26 -301 -26 -448 0 -171 21 -423 50 -604 66
                -407 239 -798 476 -1081 154 -183 300 -310 560 -487 79 -54 158 -108 175 -120
                17 -13 35 -20 40 -17 14 8 -7 40 -109 169 -150 188 -153 192 -263 345 -186
                259 -236 334 -341 515 -210 362 -392 950 -493 1595 -24 153 -23 150 -45 150
                -10 0 -21 -8 -24 -17z" />
                <path d="M15595 15980 c-241 -15 -484 -74 -660 -162 -22 -11 -93 -52 -157 -90
                l-118 -70 -18 22 c-23 28 -30 20 -74 -85 -31 -78 -32 -84 -33 -225 0 -169 15
                -228 74 -290 48 -50 80 -58 160 -37 152 40 269 129 408 312 84 111 399 413
                601 576 28 23 52 46 52 51 0 9 -55 8 -235 -2z" />
                <path d="M15960 15463 c-73 -12 -233 -59 -289 -85 -70 -31 -171 -102 -171
                -119 0 -14 20 -10 190 36 120 33 149 37 255 38 128 0 231 -19 495 -93 367
                -103 495 -116 723 -76 118 20 118 26 -9 62 -230 66 -309 91 -447 141 -246 89
                -319 103 -537 102 -102 -1 -196 -4 -210 -6z" />
                <path d="M19835 15129 c-92 -11 -126 -32 -81 -49 15 -5 33 -10 41 -10 31 0
                277 -53 375 -81 206 -59 312 -100 489 -188 159 -80 531 -292 571 -327 14 -12
                354 -219 398 -243 46 -25 28 13 -60 121 -142 175 -232 271 -331 355 -237 199
                -528 343 -817 403 -84 18 -145 23 -305 26 -110 1 -236 -2 -280 -7z" />
                <path d="M16163 15074 c-12 -11 -31 -51 -43 -91 -36 -117 -99 -173 -194 -173
                -39 0 -51 5 -80 35 -35 34 -45 61 -62 160 -12 67 -41 82 -122 66 -111 -22
                -172 -91 -172 -196 0 -94 56 -181 159 -248 122 -81 210 -99 365 -77 65 9 91 9
                99 1 18 -18 -22 -49 -99 -78 -128 -47 -330 -41 -498 15 -91 30 -129 59 -182
                140 -56 85 -74 98 -129 92 -61 -5 -266 -191 -318 -288 -28 -51 -28 -54 -12
                -79 16 -23 21 -25 68 -19 29 4 90 16 137 27 151 35 185 35 286 1 316 -109 552
                -116 717 -19 74 44 282 271 371 407 48 72 86 165 86 210 0 26 -7 32 -62 59
                -80 37 -155 59 -232 67 -51 5 -65 3 -83 -12z" />
                <path d="M18726 14588 c99 -222 149 -295 537 -774 225 -280 416 -583 519 -829
                64 -151 102 -247 165 -420 65 -180 195 -559 215 -625 5 -19 15 -41 22 -48 17
                -17 24 -7 61 83 16 39 78 173 137 299 121 255 152 346 169 505 31 280 -51 475
                -305 726 -190 189 -365 324 -674 520 -246 157 -439 298 -565 414 -130 119
                -313 271 -328 271 -4 0 17 -55 47 -122z" />
                <path d="M12991 13970 c-50 -6 -70 -30 -24 -30 46 0 217 -28 341 -56 145 -32
                289 -80 449 -149 124 -54 160 -73 468 -250 332 -190 374 -207 349 -141 -6 16
                -227 219 -329 301 -164 132 -383 236 -590 279 -183 38 -534 62 -664 46z" />
                <path d="M12796 13621 c5 -4 61 -21 124 -36 355 -86 676 -231 1300 -587 95
                -55 166 -102 168 -111 6 -28 -27 -20 -159 36 -321 139 -866 297 -1289 376
                -315 58 -613 80 -825 62 -275 -24 -368 -39 -560 -90 -16 -5 -55 -17 -85 -28
                -30 -11 -84 -30 -120 -43 -140 -50 -376 -192 -534 -324 -116 -96 -224 -214
                -296 -323 -132 -199 -206 -382 -213 -522 l-2 -56 42 1 c53 1 104 31 323 194
                243 180 332 229 418 230 31 0 32 -1 32 -46 0 -25 -5 -55 -11 -67 -21 -41 -84
                -98 -149 -137 -36 -22 -87 -57 -115 -79 -27 -21 -115 -86 -195 -144 -194 -139
                -250 -185 -250 -201 0 -18 74 -36 149 -36 82 0 173 30 476 160 196 84 266 118
                302 149 67 60 229 131 365 161 46 11 67 22 107 61 80 77 373 209 465 209 60 0
                81 -41 51 -99 -18 -35 -94 -104 -138 -124 -140 -66 -232 -98 -282 -97 -11 1
                -45 11 -75 25 -61 26 -63 25 -74 -39 -16 -86 -162 -191 -341 -245 -38 -11 -92
                -36 -120 -54 -74 -51 -150 -89 -269 -137 -87 -35 -107 -47 -112 -67 -12 -45
                13 -56 122 -55 237 3 623 113 1344 382 47 17 110 41 140 52 96 35 210 33 210
                -3 0 -7 -19 -30 -42 -52 -42 -39 -80 -59 -378 -197 -146 -68 -518 -222 -668
                -276 -138 -50 -370 -110 -512 -133 -226 -36 -285 -41 -921 -71 -207 -9 -271
                -18 -335 -45 -41 -17 -44 -31 -6 -39 89 -19 396 -38 607 -38 203 0 283 5 515
                31 151 17 298 35 325 40 28 6 73 13 100 16 76 10 377 71 490 98 128 32 395
                118 575 185 30 12 127 46 215 77 88 31 174 63 190 70 58 27 191 77 315 120 69
                23 193 69 275 100 472 180 920 288 1424 341 195 21 691 15 871 -11 394 -55
                657 -137 997 -309 267 -135 430 -254 624 -453 186 -191 280 -328 402 -583 159
                -335 240 -642 278 -1060 13 -150 7 -565 -12 -698 -11 -85 -14 -93 -33 -90 -19
                3 -22 14 -33 132 -36 379 -123 704 -250 927 -72 128 -116 189 -128 177 -4 -4
                11 -92 35 -195 148 -658 155 -715 154 -1183 -1 -366 -2 -380 -33 -585 -17
                -115 -40 -250 -50 -300 -11 -49 -33 -156 -50 -236 -17 -80 -42 -181 -56 -225
                -14 -43 -25 -82 -25 -86 0 -20 36 12 91 80 73 91 138 189 373 562 154 246 326
                661 405 980 139 564 157 1110 50 1590 -44 197 -101 396 -155 541 -31 82 -54
                153 -50 156 3 4 40 -10 81 -30 41 -20 76 -37 78 -37 14 0 437 -253 562 -336
                144 -95 478 -274 490 -262 3 3 -23 61 -58 129 -98 189 -165 373 -242 669 -121
                464 -196 680 -289 830 -163 264 -354 427 -669 575 -145 68 -416 135 -722 180
                -375 54 -608 114 -898 229 -332 132 -343 130 -156 -41 103 -94 265 -199 504
                -328 252 -136 489 -277 565 -335 257 -199 330 -277 218 -236 -58 21 -96 30
                -283 72 -308 68 -470 116 -750 225 -115 44 -336 154 -515 255 -233 132 -410
                194 -758 263 -243 49 -292 56 -292 41 0 -10 245 -133 586 -293 208 -97 328
                -166 332 -190 2 -10 -3 -17 -11 -17 -14 0 -457 99 -542 121 -22 5 -175 43
                -340 83 -214 52 -352 92 -484 141 -188 68 -412 162 -466 195 -47 28 -304 156
                -360 178 -285 115 -533 180 -794 207 -153 17 -300 20 -285 6z m-201 -590 c69
                -24 71 -48 10 -95 -71 -54 -125 -76 -216 -87 -95 -13 -128 -5 -155 35 -23 36
                -11 71 34 100 93 61 232 81 327 47z m-573 -188 c36 -34 35 -54 -2 -96 -66 -76
                -251 -145 -354 -132 l-52 7 -44 -56 c-67 -88 -156 -148 -258 -176 -75 -20
                -151 21 -138 74 15 61 159 154 316 206 36 12 101 43 145 69 71 43 118 67 230
                116 16 7 52 14 79 14 41 1 55 -4 78 -26z m1403 -76 c53 -30 59 -67 18 -109
                -36 -38 -80 -56 -167 -69 -93 -13 -158 -4 -191 27 -101 93 203 228 340 151z
                m-491 -128 c33 -26 33 -49 0 -89 -33 -39 -79 -62 -219 -112 -92 -33 -124 -40
                -196 -41 -73 -2 -90 1 -108 17 -30 27 -26 44 19 88 49 46 97 71 210 110 152
                53 249 62 294 27z m850 -222 c39 -26 34 -61 -17 -112 -47 -48 -94 -65 -177
                -65 -55 1 -69 7 -103 47 -18 21 -18 23 -2 50 50 85 222 130 299 80z m-554
                -212 c23 -25 23 -26 7 -60 -25 -52 -164 -136 -281 -170 -89 -26 -176 -6 -176
                41 0 38 124 127 240 172 126 49 176 53 210 17z" />
                <path d="M27470 13251 c-61 -32 -105 -100 -244 -376 -75 -148 -150 -295 -167
                -325 -99 -175 -202 -349 -264 -445 -39 -60 -111 -173 -159 -250 -172 -273
                -485 -718 -682 -971 -41 -52 -74 -99 -74 -104 0 -11 116 -80 135 -80 8 0 42
                33 76 73 34 39 73 86 88 102 35 41 427 548 526 681 76 102 140 195 309 449 67
                100 177 281 279 460 22 39 53 93 69 120 16 28 61 114 101 193 42 83 79 144 89
                148 29 9 209 -97 416 -244 272 -193 363 -263 372 -288 13 -34 -21 -161 -88
                -324 -69 -170 -140 -328 -175 -390 -13 -25 -48 -90 -77 -145 -180 -339 -443
                -756 -869 -1380 -206 -301 -271 -399 -271 -405 0 -8 84 -74 131 -104 27 -17
                27 -17 72 31 61 64 124 145 280 353 264 354 223 297 441 627 121 184 236 369
                236 378 0 3 18 34 40 71 23 36 64 109 92 162 28 53 78 144 110 202 209 374
                349 751 350 940 1 132 -12 149 -237 317 -283 213 -701 500 -768 528 -49 20
                -95 19 -137 -4z" />
                <path d="M8363 12864 c-33 -50 -19 -134 63 -381 25 -76 54 -172 65 -213 31
                -118 67 -205 97 -232 15 -14 74 -48 132 -75 58 -28 143 -73 189 -101 133 -82
                186 -82 162 -1 -19 64 -55 115 -150 214 -111 116 -181 235 -206 348 -5 26 -5
                27 12 10 10 -10 38 -50 63 -88 75 -115 180 -210 288 -257 36 -16 67 -21 132
                -21 137 0 272 47 390 135 81 61 271 221 301 254 73 81 122 182 135 278 7 51
                -4 63 -38 37 -13 -10 -73 -52 -133 -91 -67 -44 -134 -99 -170 -138 -122 -134
                -158 -164 -224 -195 -63 -30 -72 -31 -196 -32 -121 0 -134 2 -188 27 -68 32
                -164 124 -197 188 -38 74 -28 171 24 243 l21 29 -24 19 c-18 15 -39 19 -97 19
                -66 0 -77 -3 -104 -27 -48 -44 -59 -167 -24 -257 5 -13 4 -17 -4 -13 -6 4 -16
                24 -23 45 -6 20 -32 75 -58 121 -85 153 -193 224 -238 155z" />
                <path d="M22227 12804 c-17 -17 8 -372 38 -539 58 -329 75 -489 75 -689 0
                -223 -26 -366 -100 -552 -130 -326 -248 -487 -652 -899 -93 -94 -168 -177
                -168 -184 0 -19 39 -7 142 44 214 108 494 308 613 439 249 272 358 475 417
                770 28 144 27 394 -2 571 -47 292 -99 456 -259 828 -93 216 -95 220 -104 211z" />
                <path d="M28876 12008 c-13 -24 -41 -83 -61 -131 -37 -92 -37 -98 1 -132 40
                -35 244 -191 326 -250 229 -163 449 -324 556 -407 62 -48 118 -88 123 -88 77
                0 -159 -687 -509 -1480 -180 -408 -531 -1060 -783 -1455 -194 -304 -584 -860
                -799 -1138 -141 -184 -436 -537 -580 -697 -67 -74 -173 -191 -235 -260 -315
                -351 -937 -947 -1219 -1170 -18 -14 -81 -65 -141 -115 -442 -366 -1097 -816
                -1612 -1108 -43 -25 -96 -55 -118 -67 -381 -218 -860 -443 -1230 -578 -327
                -119 -315 -116 -315 -76 0 15 -7 68 -15 118 -8 50 -31 197 -50 326 -80 527
                -197 1007 -306 1256 -23 53 -53 109 -65 123 -21 25 -27 26 -118 25 -59 0 -101
                -5 -108 -12 -9 -9 -5 -43 16 -139 95 -449 149 -736 176 -948 22 -179 61 -559
                70 -690 13 -201 40 -488 46 -494 8 -8 187 39 320 85 71 25 183 62 250 84 124
                40 226 78 419 156 146 60 125 51 335 149 382 180 710 350 920 477 326 197 503
                306 580 356 178 116 593 414 743 534 58 46 142 112 188 148 152 121 367 304
                589 505 272 245 863 846 1052 1069 34 41 128 150 208 243 459 530 831 1034
                1209 1635 46 73 98 156 116 183 27 42 206 343 285 480 74 129 305 585 398 787
                201 437 318 732 472 1198 142 430 201 652 181 689 -6 10 -34 36 -63 58 -189
                143 -367 269 -453 323 -55 34 -174 111 -265 170 -234 152 -477 300 -495 300
                -8 0 -25 -19 -39 -42z" />
                <path d="M15294 11948 c-3 -4 8 -10 23 -14 49 -12 265 -71 340 -93 104 -30
                447 -166 523 -208 206 -111 369 -252 506 -435 108 -144 180 -273 263 -471 73
                -177 154 -337 169 -337 35 0 -16 346 -79 534 -94 279 -198 463 -350 616 -253
                257 -556 371 -1094 410 -158 12 -293 11 -301 -2z" />
                <path d="M14735 11763 c-11 -2 -30 -6 -41 -8 -50 -11 -34 -166 29 -291 71
                -140 242 -336 341 -389 l37 -20 18 23 c9 13 34 65 54 116 69 176 139 516 112
                545 -7 7 -46 17 -86 22 -74 8 -427 10 -464 2z" />
                <path d="M14305 11730 c-77 -12 -493 -122 -512 -135 -41 -30 37 -225 149 -377
                84 -113 159 -186 244 -236 92 -55 106 -54 132 6 25 58 86 267 102 347 39 204
                52 310 44 363 l-6 42 -52 -1 c-28 -1 -73 -5 -101 -9z" />
                <path d="M13256 11435 c-136 -52 -257 -102 -267 -111 -47 -43 8 -216 113 -359
                99 -133 202 -225 253 -225 32 0 69 88 117 279 53 211 78 350 78 438 0 69 -1
                73 -22 72 -13 0 -135 -42 -272 -94z" />
                <path d="M12635 11201 c-187 -65 -185 -64 -185 -108 0 -98 49 -193 99 -193 74
                0 193 84 211 148 16 59 10 192 -9 192 -3 0 -55 -18 -116 -39z" />
                <path d="M12162 11044 c-19 -8 -76 -24 -128 -34 -52 -11 -103 -24 -114 -30
                -32 -17 -45 -76 -45 -212 0 -155 4 -161 112 -179 85 -14 111 -9 157 32 69 60
                105 177 106 342 l0 97 -27 -1 c-16 0 -43 -7 -61 -15z" />
                <path d="M11628 10985 c-3 -3 -255 -21 -440 -31 l-118 -6 0 -82 c0 -146 87
                -423 190 -604 126 -223 246 -374 384 -484 64 -51 72 -42 58 59 -6 43 -14 114
                -17 158 -3 44 -13 141 -22 215 -15 134 -14 428 3 676 6 86 5 91 -14 96 -12 3
                -22 5 -24 3z" />
                <path d="M9685 10906 c-129 -32 -139 -69 -58 -231 68 -135 223 -313 357 -409
                87 -62 208 -123 281 -141 63 -16 221 -20 243 -7 9 7 -15 50 -94 168 -67 100
                -136 220 -187 324 -95 196 -138 264 -175 279 -76 30 -275 40 -367 17z" />
                <path d="M10428 10901 c-42 -3 -82 -11 -88 -17 -8 -8 -7 -28 5 -74 61 -234
                267 -523 431 -605 61 -30 165 -45 219 -31 30 8 33 38 9 94 -34 78 -114 316
                -134 394 -31 122 -61 211 -78 231 -13 15 -33 17 -151 15 -75 -1 -171 -4 -213
                -7z" />
                <path d="M15125 10824 c-44 -25 -215 -119 -380 -209 -341 -185 -406 -221 -669
                -369 -104 -58 -190 -106 -192 -106 -2 0 -27 -14 -56 -31 -51 -30 -656 -369
                -843 -472 -246 -135 -389 -216 -478 -269 -54 -32 -99 -58 -101 -58 -4 0 -151
                -80 -346 -190 -91 -51 -203 -113 -250 -138 -47 -25 -114 -64 -150 -85 -36 -22
                -139 -81 -230 -132 -552 -307 -896 -501 -1095 -617 -71 -41 -185 -105 -253
                -143 l-123 -67 -102 7 c-56 3 -154 12 -217 20 -63 8 -167 19 -230 25 -63 6
                -236 25 -385 41 -277 31 -334 37 -610 64 -153 14 -161 14 -185 -3 -22 -16
                -138 -177 -139 -193 -1 -6 281 -54 379 -64 30 -3 102 -12 160 -20 58 -8 164
                -21 235 -30 72 -8 184 -22 250 -30 66 -8 188 -21 270 -30 143 -15 391 -49 446
                -61 24 -4 33 -22 87 -162 34 -86 156 -440 271 -787 116 -346 224 -670 241
                -720 17 -49 95 -286 174 -525 80 -239 177 -527 216 -640 39 -113 88 -259 110
                -325 21 -66 142 -428 268 -805 440 -1312 732 -2207 732 -2241 0 -5 -15 -9 -32
                -9 -51 0 -439 60 -733 114 -152 27 -1054 179 -1200 201 -134 21 -757 122 -855
                140 -47 8 -170 28 -275 45 -104 17 -325 54 -490 81 -165 28 -415 68 -555 89
                -270 41 -670 106 -858 140 -117 21 -211 53 -270 93 -68 46 -79 74 -391 1007
                -66 195 -156 461 -201 590 -45 129 -171 498 -280 820 -108 322 -223 657 -255
                745 -31 88 -76 221 -100 295 -23 74 -73 223 -110 330 -37 107 -94 272 -125
                365 -32 94 -70 204 -85 245 -15 41 -87 253 -160 470 -74 217 -157 460 -185
                540 -96 270 -163 481 -154 490 5 4 34 4 64 0 30 -5 91 -9 134 -9 44 -1 129 -8
                190 -16 61 -8 179 -21 261 -29 278 -29 529 -56 605 -66 107 -14 225 -27 380
                -40 74 -6 180 -16 235 -21 55 -6 129 -13 163 -16 l64 -6 104 104 c57 57 104
                106 104 109 0 3 -51 11 -112 18 -113 13 -170 20 -543 66 -110 14 -279 32 -375
                41 -270 24 -350 33 -410 44 -92 17 -318 41 -391 41 -65 0 -69 1 -69 23 0 18
                17 31 93 69 50 26 168 92 260 148 92 55 170 100 172 100 2 0 62 33 132 73 112
                64 178 101 440 244 28 15 98 54 155 87 178 102 332 188 688 384 320 176 589
                326 685 381 49 29 187 105 275 153 36 20 134 74 219 122 85 47 155 86 156 86
                0 0 80 45 175 100 96 55 180 100 187 100 29 0 14 31 -55 115 -107 130 -95 121
                -134 98 -18 -11 -73 -42 -123 -68 -162 -86 -219 -117 -275 -150 -30 -17 -116
                -65 -190 -105 -74 -40 -205 -112 -290 -160 -282 -159 -434 -243 -530 -293 -52
                -28 -196 -107 -320 -177 -124 -70 -373 -210 -555 -310 -181 -101 -359 -200
                -395 -220 -150 -85 -332 -186 -435 -243 -167 -91 -444 -246 -498 -279 -75 -45
                -456 -258 -510 -286 -27 -14 -51 -31 -54 -40 -20 -50 130 -547 395 -1312 56
                -163 115 -334 252 -740 316 -930 502 -1476 543 -1590 24 -69 96 -280 160 -470
                124 -369 230 -681 297 -875 23 -66 116 -338 206 -605 90 -267 180 -517 199
                -555 18 -39 55 -92 81 -118 94 -96 179 -123 584 -187 63 -10 250 -41 415 -69
                165 -28 365 -60 445 -71 241 -35 326 -48 550 -85 118 -20 256 -42 305 -50 50
                -8 142 -23 205 -35 63 -12 216 -39 340 -60 124 -21 264 -46 312 -54 47 -9 148
                -25 225 -36 76 -11 224 -33 328 -50 105 -17 307 -49 450 -71 320 -49 669 -107
                1005 -165 312 -54 464 -65 536 -39 84 32 555 280 769 406 50 29 196 111 325
                182 129 71 246 137 260 147 14 10 67 38 117 64 51 25 121 63 155 84 35 21 83
                50 108 64 25 14 81 45 125 71 216 123 378 215 460 260 102 56 301 167 485 270
                69 38 193 109 275 157 83 48 236 134 340 190 105 57 218 120 252 141 34 22 64
                39 66 39 5 0 162 89 244 138 47 28 279 156 423 234 152 83 238 131 497 281 73
                43 163 94 200 114 100 53 556 303 646 354 43 24 91 55 107 69 l29 25 -55 170
                c-94 291 -658 1979 -802 2405 -33 96 -145 434 -250 750 -104 316 -249 748
                -322 960 -72 212 -164 484 -205 605 -178 534 -435 1293 -448 1325 -22 52 -47
                69 -126 90 -39 10 -89 27 -111 39 -22 12 -43 21 -45 21 -12 0 -3 -84 19 -180
                27 -114 110 -389 182 -595 25 -71 61 -179 80 -240 41 -128 705 -2120 769
                -2305 23 -69 118 -352 210 -630 92 -278 184 -554 205 -615 21 -60 95 -285 165
                -500 70 -214 138 -419 151 -455 35 -100 183 -545 210 -634 22 -74 24 -116 5
                -116 -4 0 -57 -27 -117 -61 -168 -94 -418 -231 -529 -289 -55 -29 -174 -95
                -265 -145 -218 -122 -565 -316 -615 -345 -84 -48 -392 -221 -490 -275 -27 -15
                -90 -50 -140 -77 -49 -28 -94 -54 -100 -58 -5 -5 -100 -58 -210 -118 -110 -61
                -260 -146 -334 -189 -74 -43 -159 -92 -190 -109 -31 -17 -114 -64 -186 -106
                -71 -41 -182 -103 -245 -138 -63 -35 -169 -95 -235 -134 -66 -38 -199 -113
                -295 -166 -96 -53 -281 -156 -410 -229 -595 -337 -726 -411 -877 -498 -89 -51
                -167 -93 -173 -93 -6 0 -17 15 -25 34 -15 36 -388 1147 -636 1896 -277 835
                -567 1702 -654 1955 -47 138 -97 286 -111 330 -37 118 -178 543 -251 760 -36
                105 -125 368 -198 585 -73 217 -149 441 -169 498 -27 79 -33 107 -25 120 14
                23 102 74 574 332 297 163 380 209 445 250 73 46 198 117 330 188 36 20 108
                60 160 90 52 30 133 76 180 102 47 26 103 58 125 70 22 12 80 45 129 72 49 27
                105 60 126 73 20 12 67 39 106 59 38 19 92 49 119 65 28 16 109 62 180 102
                145 80 278 155 595 334 118 67 267 150 330 185 328 179 429 234 575 317 88 50
                214 122 280 160 66 38 163 91 215 118 243 124 800 447 800 465 0 3 -21 22 -47
                42 -27 20 -68 57 -93 82 -24 25 -53 46 -65 46 -11 0 -56 -21 -100 -46z" />
                <path d="M25460 10481 c-81 -25 -300 -176 -300 -207 0 -7 9 -34 20 -60 11 -26
                18 -55 15 -65 -8 -23 -50 -76 -144 -179 -43 -47 -134 -150 -202 -230 -68 -80
                -180 -204 -249 -275 -69 -72 -166 -173 -216 -225 -112 -117 -487 -478 -609
                -586 -253 -224 -530 -445 -777 -621 -135 -96 -183 -143 -175 -175 4 -14 19
                -37 33 -52 l27 -26 73 39 c40 22 97 57 126 79 29 21 103 72 163 112 193 130
                386 284 630 501 403 360 1148 1132 1467 1522 48 58 99 114 114 123 57 38 164
                -19 359 -193 61 -54 135 -118 165 -143 176 -144 561 -509 690 -655 101 -114
                153 -186 163 -226 10 -39 -15 -99 -76 -187 -29 -42 -80 -120 -112 -172 -192
                -312 -633 -821 -1040 -1201 -111 -102 -395 -337 -504 -416 -246 -178 -376
                -266 -461 -313 -52 -29 -124 -72 -160 -95 -36 -23 -130 -79 -210 -125 -148
                -85 -230 -143 -230 -162 0 -15 159 -3 230 17 72 21 402 188 560 282 312 188
                582 374 795 549 151 123 585 567 689 704 22 30 75 98 117 150 42 53 120 158
                175 235 54 77 130 183 169 235 39 52 83 114 98 137 17 27 41 49 65 58 80 34
                180 159 207 260 16 58 17 73 6 118 -27 105 -53 137 -351 425 -464 449 -727
                693 -890 827 -21 17 -77 66 -126 109 -49 43 -107 87 -129 97 -42 19 -147 24
                -195 10z" />
                <path d="M17027 10186 c-69 -25 -107 -76 -107 -143 0 -58 17 -108 48 -138 31
                -32 140 -85 176 -85 30 0 36 27 36 168 0 119 -20 180 -66 200 -31 15 -40 14
                -87 -2z" />
                <path d="M24825 10173 c-149 -100 -582 -460 -905 -752 -460 -418 -966 -930
                -1016 -1030 -9 -19 -11 -47 -6 -103 5 -43 11 -80 15 -84 13 -14 272 213 537
                470 146 142 278 267 361 341 24 22 98 91 164 155 66 63 172 162 235 219 63 58
                210 196 325 307 116 111 242 229 280 262 70 59 175 170 175 184 0 12 -85 58
                -106 58 -11 0 -37 -12 -59 -27z" />
                <path d="M10455 9818 c-67 -27 -299 -83 -406 -98 -80 -12 -221 -9 -294 5 -26
                5 -55 -9 -205 -102 -97 -60 -238 -145 -315 -188 -77 -43 -340 -198 -585 -345
                -245 -146 -494 -295 -555 -330 -341 -198 -650 -389 -835 -514 -119 -81 -270
                -222 -270 -253 0 -11 9 -42 19 -69 11 -27 35 -92 54 -144 20 -52 63 -167 97
                -255 88 -227 113 -296 155 -417 21 -59 43 -114 49 -123 12 -16 45 -23 266 -55
                74 -11 173 -26 220 -34 142 -24 261 -39 266 -33 9 8 -33 165 -175 657 -84 289
                -106 396 -91 450 12 46 78 109 240 231 156 116 255 184 428 291 81 50 179 111
                217 136 183 119 614 405 650 431 22 16 110 73 195 126 243 152 497 317 715
                464 255 171 244 164 245 179 0 17 -26 14 -85 -10z" />
                <path d="M19809 9712 c-161 -112 -198 -140 -289 -226 -258 -244 -512 -596
                -691 -960 -70 -140 -83 -186 -53 -186 8 0 75 38 147 84 219 140 604 350 767
                419 178 75 215 88 411 141 222 61 630 145 704 146 11 0 26 4 34 9 21 13 -30
                55 -99 82 -58 22 -210 52 -320 63 -135 14 -480 -53 -769 -149 -73 -25 -135
                -45 -137 -45 -14 0 2 43 31 85 19 28 65 95 101 150 37 54 92 133 123 175 60
                78 169 238 190 278 23 42 -20 24 -150 -66z" />
                <path d="M16782 9630 c-73 -11 -102 -39 -102 -99 0 -84 67 -297 136 -434 32
                -63 98 -152 121 -166 55 -30 186 151 244 339 17 54 23 100 23 167 1 87 0 93
                -30 130 -17 21 -47 43 -67 50 -47 16 -256 24 -325 13z" />
                <path d="M25624 9505 c-38 -19 -92 -56 -120 -83 -209 -192 -244 -227 -244
                -244 0 -10 6 -21 13 -24 7 -2 65 -64 128 -137 107 -124 170 -193 281 -312 26
                -27 78 -89 115 -137 37 -48 73 -87 79 -87 6 -1 47 34 91 77 45 42 114 109 154
                147 86 82 123 149 139 248 23 151 -24 273 -155 404 -135 133 -229 183 -349
                183 -53 0 -75 -6 -132 -35z m191 -190 c52 -32 157 -136 200 -200 19 -27 42
                -78 50 -112 15 -59 15 -65 -3 -105 -20 -45 -111 -138 -135 -138 -8 0 -45 39
                -83 87 -38 48 -122 146 -186 217 -75 81 -118 137 -118 150 0 21 50 76 100 110
                38 25 126 21 175 -9z" />
                <path d="M17392 9143 c-5 -10 -12 -34 -16 -55 -4 -20 -33 -117 -65 -215 -59
                -181 -122 -327 -220 -508 -72 -133 -73 -163 -8 -297 26 -54 52 -98 57 -98 13
                0 80 101 119 178 99 197 161 530 161 868 0 138 -7 168 -28 127z" />
                <path d="M25007 8955 c-93 -35 -216 -144 -273 -244 -50 -89 -52 -217 -6 -319
                55 -120 226 -307 327 -357 55 -27 69 -30 160 -30 90 0 106 3 158 29 70 34 175
                130 226 206 49 72 101 168 101 185 0 8 -30 49 -66 92 -36 43 -93 111 -126 151
                -34 39 -66 72 -73 72 -12 0 -202 -168 -258 -227 l-28 -30 28 -30 c15 -16 36
                -40 47 -53 l19 -23 44 51 c25 29 51 52 58 52 15 0 125 -119 125 -136 0 -25
                -84 -104 -137 -130 -52 -26 -59 -27 -109 -16 -74 15 -132 58 -218 162 -75 90
                -116 171 -116 231 0 67 56 144 127 175 46 20 73 17 127 -11 l47 -25 65 57 c35
                32 64 63 64 70 0 16 -69 69 -121 93 -52 23 -136 25 -192 5z" />
                <path d="M16853 8803 c-30 -20 -29 -41 2 -55 21 -9 28 -8 45 7 45 40 2 83 -47
                48z" />
                <path d="M13538 8524 c-243 -33 -523 -142 -748 -290 -52 -35 -104 -71 -115
                -81 -11 -10 -38 -31 -60 -48 -78 -58 -224 -217 -292 -318 -115 -171 -190 -367
                -214 -566 -16 -128 -3 -263 40 -406 51 -170 96 -255 229 -432 48 -65 106 -147
                128 -183 44 -73 45 -84 30 -291 -8 -105 -7 -119 12 -161 42 -95 144 -167 275
                -194 85 -18 127 -13 267 33 58 19 134 36 170 39 64 6 66 5 100 -29 19 -19 64
                -92 100 -163 37 -72 76 -136 91 -146 23 -18 29 -18 90 -4 134 31 247 69 344
                116 55 27 110 51 123 55 12 4 52 24 88 45 36 21 82 41 102 45 50 9 118 46 176
                93 27 23 76 51 109 63 70 26 142 89 153 134 9 37 -11 118 -62 246 -69 176 -41
                253 116 319 183 76 275 188 299 362 11 81 2 158 -24 210 -10 18 -57 71 -105
                118 -140 136 -163 187 -200 428 -50 334 -144 546 -320 722 -174 175 -348 259
                -600 290 -104 12 -177 11 -302 -6z m889 -1125 c68 -33 135 -122 227 -306 56
                -113 46 -174 -46 -266 -83 -83 -213 -126 -379 -127 -76 0 -93 3 -148 31 -77
                38 -155 114 -184 176 -32 70 -29 171 5 238 34 65 124 164 187 204 111 72 251
                92 338 50z m-1150 -591 c65 -16 117 -71 139 -144 25 -87 16 -233 -18 -300
                -102 -197 -376 -381 -512 -343 -84 23 -146 118 -185 280 -42 173 -23 259 75
                354 53 51 184 128 258 151 52 16 183 18 243 2z m526 -204 c134 -70 367 -316
                367 -390 0 -28 -42 -80 -83 -100 -37 -20 -94 -12 -149 18 -44 25 -47 24 -77
                -53 -24 -61 -51 -92 -93 -108 -38 -14 -88 21 -106 74 -15 44 -31 226 -32 345
                0 87 22 159 62 202 30 32 64 36 111 12z" />
                <path d="M24439 8458 c-40 -35 -85 -75 -100 -89 -31 -30 -32 -11 7 -282 24
                -171 29 -227 18 -227 -18 0 -64 38 -99 83 -85 108 -157 187 -170 187 -18 0
                -155 -121 -155 -137 0 -6 48 -67 108 -134 59 -68 133 -152 165 -188 31 -36
                105 -124 165 -195 164 -198 157 -190 174 -180 8 5 45 37 83 70 l67 62 -86 107
                c-84 105 -86 108 -86 161 0 37 4 56 14 60 15 6 126 -26 269 -75 49 -17 99 -31
                113 -31 16 0 53 27 113 82 49 46 88 84 87 85 -1 2 -51 18 -112 37 -116 37
                -437 146 -441 150 -10 9 -25 139 -38 310 -9 110 -17 201 -19 203 -2 2 -36 -24
                -77 -59z" />
                <path d="M20760 8464 c-148 -6 -379 -24 -448 -34 -37 -5 -132 -19 -212 -31
                -80 -12 -185 -30 -235 -40 -49 -11 -135 -29 -190 -40 -279 -58 -658 -199 -895
                -333 -372 -210 -580 -397 -1088 -983 l-144 -165 22 -59 c35 -99 70 -171 79
                -167 23 8 244 224 368 361 412 451 456 492 723 669 162 108 403 234 555 291
                70 27 260 85 345 106 80 19 181 41 194 41 15 0 190 -176 283 -285 85 -100 195
                -254 265 -370 51 -86 188 -359 188 -376 0 -8 -30 -40 -67 -70 -44 -35 -78 -74
                -96 -107 -30 -56 -61 -183 -53 -217 9 -34 57 -55 129 -55 97 0 340 66 487 133
                25 11 81 35 125 54 70 30 338 166 450 228 267 149 444 255 500 300 22 18 62
                45 88 60 40 23 47 31 41 49 -10 34 -86 157 -100 163 -10 4 -257 -122 -289
                -147 -5 -5 -55 -34 -110 -65 -296 -170 -388 -221 -470 -260 -49 -24 -128 -65
                -175 -90 -57 -32 -89 -44 -98 -38 -8 5 -24 35 -37 68 -12 33 -55 125 -95 205
                -162 324 -370 631 -542 800 -50 49 -87 93 -83 99 3 6 23 11 43 11 20 0 107 9
                192 20 85 11 214 27 285 35 72 9 177 23 235 30 58 8 155 19 215 25 61 5 173
                17 250 25 77 8 190 15 252 15 184 0 155 27 -92 85 -77 19 -167 39 -200 45 -60
                11 -437 20 -595 14z" />
                <path d="M22659 8192 c-15 -9 -71 -51 -125 -93 -105 -80 -163 -138 -188 -188
                -22 -41 -20 -139 2 -204 25 -69 174 -310 394 -637 431 -640 719 -1031 842
                -1144 78 -72 184 -93 297 -60 110 32 322 155 317 183 -2 7 -26 27 -55 43 -39
                22 -72 31 -136 38 -47 5 -98 15 -114 24 -113 58 -797 940 -1048 1351 -6 11
                -27 47 -45 80 -18 33 -54 96 -79 140 -40 70 -46 88 -49 150 -3 46 2 90 12 125
                16 54 22 210 9 210 -5 0 -20 -8 -34 -18z" />
                <path d="M23697 7775 c-77 -27 -148 -83 -359 -283 l-66 -64 66 -86 c36 -48
                120 -150 187 -227 122 -141 262 -313 304 -372 12 -18 26 -33 31 -33 12 0 160
                131 160 141 0 5 -43 61 -95 126 -52 64 -95 121 -95 126 0 9 21 30 136 137 114
                106 154 248 101 362 -57 122 -151 188 -266 188 -37 -1 -83 -7 -104 -15z m135
                -211 c43 -30 68 -77 68 -127 0 -31 -11 -47 -81 -121 -45 -47 -85 -86 -89 -86
                -7 0 -129 145 -169 201 -19 26 -4 52 59 104 85 70 141 78 212 29z" />
                <path d="M15865 7206 c-92 -29 -159 -87 -196 -171 -18 -41 -23 -77 -29 -200
                -6 -124 -12 -163 -34 -224 -50 -142 -165 -334 -294 -491 -39 -47 -106 -129
                -149 -182 -248 -307 -376 -464 -453 -553 -47 -55 -115 -135 -150 -177 -36 -43
                -143 -171 -239 -285 -96 -114 -228 -271 -292 -348 -65 -77 -154 -180 -198
                -230 -44 -49 -134 -151 -198 -225 -151 -172 -461 -489 -535 -547 -77 -59 -153
                -93 -208 -93 -55 0 -149 -23 -205 -50 -51 -25 -121 -93 -148 -145 -28 -53 -30
                -165 -3 -214 58 -107 184 -142 315 -85 89 39 91 36 91 -100 0 -128 7 -156 53
                -204 47 -50 83 -64 153 -64 110 0 215 66 265 169 26 52 28 86 14 249 -8 100
                -4 121 51 239 40 87 182 304 224 345 3 3 30 37 60 75 63 82 158 198 215 264
                134 156 175 206 439 533 55 68 116 141 135 163 20 22 50 58 68 80 332 417 451
                556 917 1065 198 216 265 283 361 355 116 87 153 102 292 115 105 9 174 36
                241 95 65 57 86 105 87 197 0 69 -3 80 -30 119 -17 24 -50 57 -73 73 -54 38
                -122 40 -199 7 -42 -19 -55 -21 -73 -11 -20 10 -21 17 -16 68 19 197 19 227
                -3 269 -27 54 -95 111 -140 118 -20 4 -45 8 -56 10 -11 2 -38 -2 -60 -9z" />
                <path d="M22049 7149 c-68 -51 -182 -119 -324 -194 -60 -32 -139 -75 -175 -95
                -123 -71 -325 -169 -465 -225 -235 -95 -375 -151 -479 -190 -161 -62 -214
                -131 -204 -265 5 -60 42 -143 172 -385 42 -77 161 -311 265 -520 104 -209 204
                -399 221 -423 43 -60 78 -72 208 -72 334 0 916 202 1417 491 258 150 496 309
                554 372 l23 26 -57 70 c-32 39 -65 73 -73 76 -9 3 -51 -24 -106 -68 -181 -146
                -431 -321 -556 -390 -174 -96 -503 -223 -705 -273 -116 -28 -338 -64 -400 -64
                -58 0 -71 17 -185 237 -51 98 -109 210 -130 248 -69 130 -127 239 -185 350
                -69 132 -123 227 -182 317 -67 105 -60 122 67 168 36 13 70 26 75 30 6 4 21
                11 35 15 51 15 389 169 500 227 63 34 194 101 290 151 171 88 244 131 424 252
                110 74 116 83 87 124 -39 54 -52 55 -112 10z" />
                <path d="M21643 6558 c-29 -18 -55 -38 -58 -46 -10 -27 190 -361 344 -572 22
                -30 69 -98 105 -150 60 -87 173 -235 231 -302 14 -17 33 -28 48 -28 34 0 137
                47 137 63 0 32 -364 583 -539 816 -69 92 -203 251 -211 251 -3 0 -29 -14 -57
                -32z" />
                <path d="M22341 6512 c-57 -9 -101 -62 -101 -122 0 -23 11 -43 44 -78 43 -46
                46 -47 103 -47 39 1 69 7 91 20 38 22 72 72 72 103 0 23 -51 86 -84 104 -26
                14 -92 25 -125 20z" />
                <path d="M16599 5456 c-53 -19 -93 -49 -189 -141 -47 -45 -109 -94 -138 -109
                -141 -71 -568 -140 -937 -152 -93 -3 -180 -7 -192 -10 -14 -2 -56 -47 -108
                -112 -47 -59 -109 -136 -138 -171 -88 -109 -86 -105 -41 -96 21 4 156 11 299
                16 143 4 343 13 445 20 205 12 445 6 531 -15 79 -18 134 -53 214 -136 93 -95
                154 -125 255 -125 84 0 130 19 189 77 40 39 81 125 81 170 0 52 -40 117 -103
                166 -87 68 -88 106 -6 169 127 97 171 235 113 352 -38 75 -96 111 -178 111
                -34 -1 -77 -7 -97 -14z" />
                <path d="M12035 5211 c-53 -24 -101 -65 -133 -115 -24 -36 -27 -51 -26 -121 0
                -120 31 -167 166 -256 24 -15 38 -32 38 -45 0 -12 -23 -50 -51 -85 -78 -97
                -93 -132 -92 -214 0 -139 73 -215 206 -215 105 0 187 45 267 145 94 118 239
                187 430 206 52 5 129 13 170 19 189 25 619 59 752 60 21 0 44 20 110 96 128
                148 207 248 201 258 -3 4 -24 5 -47 2 -90 -15 -598 -36 -861 -36 -227 0 -304
                4 -405 20 -201 31 -260 58 -376 175 -46 46 -102 91 -128 103 -59 28 -163 30
                -221 3z" />
        </g>
</svg>
